{"title":"PBS_Nova_S41_E02_Megastorm Aftemath_720p.HDTV.x264_TTL","uid":9029236,"size":1622457105,"categoryP":"video","categoryS":"hd___tv_shows","magnet":"?xt=urn:btih:dd894a66777ad8d5bdc8451eee032e6f0636d245&amp;dn=PBS_Nova_S41_E02_Megastorm+Aftemath_720p.HDTV.x264_TTL&amp;tr=udp%3A%2F%2Ftracker.openbittorrent.com%3A80&amp;tr=udp%3A%2F%2Fopen.demonii.com%3A1337&amp;tr=udp%3A%2F%2Ftracker.coppersurfer.tk%3A6969&amp;tr=udp%3A%2F%2Fexodus.desync.com%3A6969","seeders":0,"leechers":2,"uploader":"thetorrentlord","files":-1,"time":1381427553,"description":"Enjoy and please share.\t\t\t\t\t\t\t\t\t\t\t\t\t\t\t\t\t\t\t\t\t\t\t\t\t\t\t\t\t\t\t\t\t\t\t\t\t\t\t\t\t\t\t\t\t\t\t\t\t\t\t\t\t\t\t\t\t\t\t\t\t\t\t\t\t &lt;a href=&quot;\thttp://www.pbs.org/wgbh/nova/earth/megastorm-aftermath.html&quot; rel=&quot;nofollow&quot; target=&quot;_NEW&quot;&gt;\thttp://www.pbs.org/wgbh/nova/earth/megastorm-aftermath.html&lt;/a&gt;\t\t\t\t\t\t\t\t\t\t\t\t\t\t\t\t\t\t\t\t\t\t\t\t\t\t\t\t\tIn October 2012, Megastorm Sandy cut a path of devastation across the Caribbean and the East Coast, killing hundreds and doing tens of billions of dollars in damage. To many, it was a wake-up call. Now, one year after Sandy's deadly strike, NOVA follows up on the 2012 film &quot;Inside the Megastorm&quot; with a fresh investigation of the critical questions raised by this historic storm: Was Megastorm Sandy a freak combination of weather systems? Or are hurricanes increasing in intensity due to a changing climate? What can we do to prepare ourselves for the next Sandy, and what progress has been made toward making our urban infrastructure more resilient? Much of Sandy's wrecking power was due to an extreme storm surge that left large swaths of New York and New Jersey underwater. And with sea levels on the rise, flooding will only become more frequent. NOVA examines the role of climate change in driving these rising seas, and looks at some of the latest extraordinary engineering employed in other areas, as well as what it may take to make cities like New York more resilient in the future.\t\t\t\t\t\t\t\t\t\t\t\t\t\t\t\t\t\t\t\t\t\t\t\t\t\t\t\t\t\t\t\t\t\t\t\t\t\t\t\t\t\t\t\tNova_S41_E02_Megastorm Aftemath_720p.HDTV.x264_TTL.mkv\nFormat                           : Matroska\nFile size                        : 1.47 GiB\nDuration                         : 53mn 20s\nOverall bit rate                 : 3 959 Kbps\nWriting application              : HandBrake 0.9.5\nWriting library                  : libmkv 0.6.4.1\n\nVideo\nID                               : 1\nFormat                           : AVC\nFormat/Info                      : Advanced Video Codec\nFormat profile                   : &lt;a class=&quot;__cf_email__&quot; href=&quot;/cdn-cgi/l/email-protection&quot; data-cfemail=&quot;2a62434d426a6619041b&quot;&gt;[email&amp;#160;protected]&lt;/a&gt;&lt;script cf-hash='f9e31' type=&quot;text/javascript&quot;&gt;\n/* &lt;![CDATA[ */!function(){try{var t=&quot;currentScript&quot;in document?document.currentScript:function(){for(var t=document.getElementsByTagName(&quot;script&quot;),e=t.length;e--;)if(t[e].getAttribute(&quot;cf-hash&quot;))return t[e]}();if(t&amp;&amp;t.previousSibling){var e,r,n,i,c=t.previousSibling,a=c.getAttribute(&quot;data-cfemail&quot;);if(a){for(e=&quot;&quot;,r=parseInt(a.substr(0,2),16),n=2;a.length-n;n+=2)i=parseInt(a.substr(n,2),16)^r,e+=String.fromCharCode(i);e=document.createTextNode(e),c.parentNode.replaceChild(e,c)}}}catch(u){}}();/* ]]&gt; */&lt;/script&gt;\nFormat settings, CABAC           : Yes\nFormat settings, ReFrames        : 4 frames\nFormat settings, GOP             : M=2, N=16\nMuxing mode                      : Container profile=&lt;a class=&quot;__cf_email__&quot; href=&quot;/cdn-cgi/l/email-protection&quot; data-cfemail=&quot;b7e2d9dcd9d8c0d9f7849986&quot;&gt;[email&amp;#160;protected]&lt;/a&gt;&lt;script cf-hash='f9e31' type=&quot;text/javascript&quot;&gt;\n/* &lt;![CDATA[ */!function(){try{var t=&quot;currentScript&quot;in document?document.currentScript:function(){for(var t=document.getElementsByTagName(&quot;script&quot;),e=t.length;e--;)if(t[e].getAttribute(&quot;cf-hash&quot;))return t[e]}();if(t&amp;&amp;t.previousSibling){var e,r,n,i,c=t.previousSibling,a=c.getAttribute(&quot;data-cfemail&quot;);if(a){for(e=&quot;&quot;,r=parseInt(a.substr(0,2),16),n=2;a.length-n;n+=2)i=parseInt(a.substr(n,2),16)^r,e+=String.fromCharCode(i);e=document.createTextNode(e),c.parentNode.replaceChild(e,c)}}}catch(u){}}();/* ]]&gt; */&lt;/script&gt;\nCodec ID                         : V_MPEG4/ISO/AVC\nDuration                         : 53mn 20s\nBit rate                         : 3 730 Kbps\nWidth                            : 1 280 pixels\nHeight                           : 720 pixels\nDisplay aspect ratio             : 16:9\nFrame rate mode                  : Variable\nFrame rate                       : 29.970 fps\nColor space                      : YUV\nChroma subsampling               : 4:2:0\nBit depth                        : 8 bits\nScan type                        : Progressive\nBits/(Pixel*Frame)               : 0.135\nStream size                      : 1.36 GiB (92%)\nWriting library                  : x264 core 112\n\nAudio\nID                               : 2\nFormat                           : AC-3\nFormat/Info                      : Audio Coding 3\nMode extension                   : CM (complete main)\nCodec ID                         : A_AC3\nDuration                         : 53mn 20s\nBit rate mode                    : Constant\nBit rate                         : 224 Kbps\nChannel(s)                       : 2 channels\nChannel positions                : Front: L R\nSampling rate                    : 48.0 KHz\nStream size                      : 85.5 MiB (6%)\n\n","torrent":{"xt":"urn:btih:dd894a66777ad8d5bdc8451eee032e6f0636d245","amp;dn":"PBS_Nova_S41_E02_Megastorm+Aftemath_720p.HDTV.x264_TTL","amp;tr":["udp%3A%2F%2Ftracker.openbittorrent.com%3A80","udp%3A%2F%2Fopen.demonii.com%3A1337","udp%3A%2F%2Ftracker.coppersurfer.tk%3A6969","udp%3A%2F%2Fexodus.desync.com%3A6969"],"infoHash":"dd894a66777ad8d5bdc8451eee032e6f0636d245","infoHashBuffer":{"type":"Buffer","data":[221,137,74,102,119,122,216,213,189,200,69,30,238,3,46,111,6,54,210,69]},"announce":[],"urlList":[]}}